<svg width="97" height="112" viewBox="0 0 97 112" fill="none" xmlns="http://www.w3.org/2000/svg">
<path d="M0.76873 36.8857C1.40115 34.8226 3.13227 33.3577 5.18241 33.1643L33.0257 30.4953L44.0352 3.28493C44.8471 1.29165 46.6972 0 48.751 0C50.8051 0 52.6531 1.29165 53.4668 3.28891L64.4765 30.4933L92.3235 33.1643C94.3699 33.3636 96.0971 34.8246 96.7334 36.8857C97.3696 38.9467 96.7825 41.2111 95.2344 42.6363L74.1892 62.1247L80.3925 90.9915C80.8476 93.1142 80.066 95.3068 78.3989 96.5805C77.5022 97.2642 76.4546 97.6131 75.3955 97.6131C74.4837 97.6131 73.5795 97.354 72.7676 96.8396L48.751 81.6827L24.742 96.8396C22.9844 97.9559 20.77 97.8542 19.1068 96.5805C17.438 95.3029 16.6583 93.1083 17.1133 90.9915L23.3185 62.1266L2.27331 42.6422C0.725312 41.2111 0.134428 38.9527 0.76873 36.8857Z" fill="#89E0D1"/>
<path d="M64.7921 78.3285C66.7431 79.0223 68.8117 79.3825 70.8847 79.3825H77.3646V74.9529C75.385 74.9529 73.7744 73.2968 73.7744 71.2615V47.0197C73.6796 36.0352 59.9041 31.8833 54.0268 40.9931H30.3332C26.0193 40.9931 22.5108 44.602 22.5108 49.0359V54.8646C22.5108 59.3945 25.5785 63.2025 29.6914 64.2047V72.2755C29.6914 77.9241 32.1606 82.9927 36.0466 86.3979H33.3491C25.9892 86.3964 20 92.5543 20 100.122V111.571H75.4697V100.122C75.4697 92.5543 69.482 86.3964 62.1206 86.3964H59.4231C61.8521 84.2679 63.727 81.4916 64.7921 78.3285Z" fill="#ECECEC"/>
<path d="M53.126 62H57.4341V66.4273H53.126V62Z" fill="#0A175C"/>
<path d="M38 62H42.308V66.4273H38V62Z" fill="#0A175C"/>
<path d="M64.7921 78.3285C66.7431 79.0223 68.8117 79.3825 70.8847 79.3825H77.3646V74.9529C75.385 74.9529 73.7744 73.2968 73.7744 71.2615V47.0197C73.6796 36.0352 59.9041 31.8833 54.0268 40.9931H30.3332C26.0193 40.9931 22.5108 44.602 22.5108 49.0359V54.8646C22.5108 59.3945 25.5785 63.2025 29.6914 64.2047V72.2755C29.6914 77.9241 32.1606 82.9927 36.0466 86.3979H33.3491C25.9892 86.3964 20 92.5543 20 100.122V111.571H75.4697V100.122C75.4697 92.5543 69.482 86.3964 62.1206 86.3964H59.4231C61.8521 84.2679 63.727 81.4916 64.7921 78.3285ZM69.4663 47.0197V71.2615C69.4663 72.5854 69.7763 73.8371 70.3247 74.9426C68.7241 74.8806 67.1766 74.5515 65.7037 73.9596C65.7525 73.4046 65.7769 72.8422 65.7769 72.2755V49.0359C65.7769 45.2912 63.2747 42.1356 59.8998 41.2441C64.106 38.7658 69.5108 42.0278 69.4663 47.0197ZM26.8188 54.8646V49.0359C26.8188 47.0432 28.3951 45.4226 30.3332 45.4226H57.956C62.62 45.6218 62.6158 52.4528 57.956 52.6492H29.6914V59.5332C27.9947 58.7022 26.8188 56.9221 26.8188 54.8646ZM55.1552 90.8258C54.5481 93.245 52.9588 95.3026 50.7107 96.4582L47.7349 97.9888L44.7589 96.4582C42.5109 95.3026 40.9202 93.245 40.3145 90.8258H55.1552ZM71.1617 100.122V107.142H24.308V100.122C24.308 94.9956 28.3635 90.8258 33.3491 90.8258H35.9131C36.5834 94.9453 39.1086 98.5055 42.8325 100.42L47.7349 102.941L52.6372 100.42C56.3626 98.5055 58.8862 94.9453 59.5566 90.8258H62.1206C67.1062 90.8258 71.1617 94.9971 71.1617 100.122ZM33.9995 72.274V57.0786H57.956C59.2193 57.0786 60.4137 56.7687 61.4702 56.2209V72.2755C60.7136 91.0148 34.7488 91.0001 33.9995 72.274Z" fill="#0A175C"/>
<path d="M47.7173 76.076C46.4108 76.076 45.3472 74.9841 45.3472 73.6398H41.0391C41.4066 82.7471 54.0294 82.7411 54.394 73.6398H50.0858C50.0874 74.9841 49.0236 76.076 47.7173 76.076Z" fill="#0A175C"/>
</svg>
