<svg width="116" height="98" viewBox="0 0 116 98" fill="none" xmlns="http://www.w3.org/2000/svg">
<path d="M71.877 0C52.0312 0 35.8926 16.417 35.8926 36.6048C35.8926 61.9786 68.3741 95.3139 69.7536 96.7228C70.342 97.3137 71.1086 97.6131 71.877 97.6131C72.6453 97.6131 73.4119 97.3137 74.0003 96.7228C75.3798 95.3139 107.861 61.9786 107.861 36.6048C107.861 16.417 91.7227 0 71.877 0Z" fill="#FFDD65"/>
<path d="M38.2148 41.4239H90.2773" stroke="#0A175C" stroke-width="2.7"/>
<path d="M2.03843 32.5847L2.03824 32.5852C1.93922 32.9032 2.04111 33.228 2.24479 33.4136L2.24587 33.4145L13.2696 43.471L14.1501 44.2743L13.896 45.4388L10.6457 60.3366C10.6457 60.3366 10.6457 60.3366 10.6457 60.3368C10.5739 60.6663 10.7058 60.9726 10.9152 61.1306L10.9154 61.1307C11.107 61.2753 11.3357 61.281 11.5253 61.1623L11.5301 61.1592L24.1062 53.3364L25.198 52.6573L26.2898 53.3362L38.8699 61.1591L38.873 61.1611C38.9733 61.2237 39.0682 61.2465 39.1547 61.2465C39.2557 61.2465 39.3696 61.2156 39.4853 61.1289C39.6915 60.9733 39.8247 60.6692 39.7524 60.3359C39.7524 60.3357 39.7524 60.3356 39.7522 60.3354L36.5032 45.4376L36.2492 44.2734L37.1295 43.4701L48.1533 33.4116L48.1577 33.4076C48.355 33.2286 48.4583 32.9054 48.3591 32.5886C48.262 32.2786 48.029 32.1278 47.8256 32.1077C47.8251 32.1076 47.8247 32.1076 47.8242 32.1076L33.2408 30.7293L31.9975 30.6117L31.5232 29.4567L25.758 15.4202C25.7577 15.4196 25.7575 15.419 25.7572 15.4183C25.6338 15.1217 25.3945 15 25.1982 15C25 15 24.7608 15.1234 24.6393 15.416C24.639 15.4167 24.6387 15.4173 24.6385 15.4179L18.8733 29.4575L18.3988 30.6128L17.1554 30.7302L2.57087 32.1079L2.56776 32.1082C2.36714 32.1267 2.13444 32.276 2.03843 32.5847Z" fill="#ECECEC" stroke="#0A175C" stroke-width="2.7"/>
<path d="M67.8822 32.5847L67.882 32.5852C67.783 32.9032 67.8848 33.228 68.0884 33.4136L68.0895 33.4145L79.1133 43.471L79.9938 44.2743L79.7397 45.4388L76.4895 60.3366C76.4895 60.3366 76.4895 60.3366 76.4893 60.3368C76.4175 60.6663 76.5495 60.9726 76.7588 61.1306L76.7591 61.1307C76.9507 61.2753 77.1793 61.281 77.369 61.1623L77.3738 61.1592L89.9499 53.3364L91.0417 52.6573L92.1335 53.3362L104.714 61.1591L104.717 61.1611C104.817 61.2237 104.912 61.2465 104.998 61.2465C105.1 61.2465 105.213 61.2156 105.329 61.1286C105.535 60.973 105.668 60.6691 105.596 60.3359C105.596 60.3357 105.596 60.3356 105.596 60.3354L102.347 45.4376L102.093 44.2734L102.973 43.4701L113.997 33.4116L114.001 33.4076C114.199 33.2286 114.302 32.9054 114.203 32.5886C114.106 32.2786 113.873 32.1278 113.669 32.1077C113.669 32.1076 113.668 32.1076 113.668 32.1076L99.0845 30.7293L97.8412 30.6117L97.3669 29.4567L91.6017 15.4202C91.6014 15.4196 91.6012 15.419 91.6009 15.4183C91.4775 15.1217 91.2382 15 91.0419 15C90.8437 15 90.6046 15.1234 90.483 15.416C90.4827 15.4167 90.4824 15.4173 90.4822 15.4179L84.7171 29.4575L84.2425 30.6128L82.9991 30.7302L68.4146 32.1079L68.4115 32.1082C68.2108 32.1267 67.9782 32.276 67.8822 32.5847Z" fill="#ECECEC" stroke="#0A175C" stroke-width="2.7"/>
</svg>
