<?xml version="1.0" encoding="UTF-8"?>
<svg xmlns="http://www.w3.org/2000/svg" xmlns:xlink="http://www.w3.org/1999/xlink" width="58px" height="16px" viewBox="0 0 58 16" version="1.1">
<g id="surface1">
<path style=" stroke:none;fill-rule:nonzero;fill:rgb(100%,87.843137%,45.490196%);fill-opacity:1;" d="M 1.398438 15.90625 C 2.070312 15.90625 2.59375 15.453125 2.71875 14.78125 L 2.125 14.78125 C 2.03125 15.125 1.753906 15.339844 1.398438 15.339844 C 0.941406 15.339844 0.59375 14.976562 0.59375 14.484375 C 0.59375 13.996094 0.941406 13.625 1.398438 13.625 C 1.738281 13.625 2.011719 13.828125 2.121094 14.148438 L 2.707031 14.148438 C 2.582031 13.503906 2.058594 13.0625 1.398438 13.0625 C 0.601562 13.0625 0 13.675781 0 14.484375 C 0 15.289062 0.601562 15.90625 1.398438 15.90625 Z M 1.398438 15.90625 "/>
<path style=" stroke:none;fill-rule:nonzero;fill:rgb(100%,87.843137%,45.490196%);fill-opacity:1;" d="M 4.425781 15.90625 C 5.25 15.90625 5.863281 15.292969 5.863281 14.480469 C 5.863281 13.671875 5.25 13.0625 4.425781 13.0625 C 3.597656 13.0625 2.980469 13.675781 2.980469 14.480469 C 2.980469 15.289062 3.597656 15.90625 4.425781 15.90625 Z M 4.425781 15.347656 C 3.941406 15.347656 3.574219 14.972656 3.574219 14.480469 C 3.574219 13.992188 3.941406 13.617188 4.425781 13.617188 C 4.90625 13.617188 5.269531 13.988281 5.269531 14.480469 C 5.269531 14.976562 4.90625 15.347656 4.425781 15.347656 Z M 4.425781 15.347656 "/>
<path style=" stroke:none;fill-rule:nonzero;fill:rgb(100%,87.843137%,45.490196%);fill-opacity:1;" d="M 8.035156 13.121094 L 8.035156 14.78125 L 6.851562 13.121094 L 6.324219 13.121094 L 6.324219 15.84375 L 6.894531 15.84375 L 6.894531 14.144531 L 8.121094 15.84375 L 8.613281 15.84375 L 8.613281 13.121094 Z M 8.035156 13.121094 "/>
<path style=" stroke:none;fill-rule:nonzero;fill:rgb(100%,87.843137%,45.490196%);fill-opacity:1;" d="M 11.09375 13.121094 L 9.003906 13.121094 L 9.003906 13.667969 L 9.757812 13.667969 L 9.757812 15.84375 L 10.339844 15.84375 L 10.339844 13.667969 L 11.09375 13.667969 Z M 11.09375 13.121094 "/>
<path style=" stroke:none;fill-rule:nonzero;fill:rgb(100%,87.843137%,45.490196%);fill-opacity:1;" d="M 13.023438 15.84375 L 13.660156 15.84375 L 12.566406 13.121094 L 12.011719 13.121094 L 10.949219 15.84375 L 11.574219 15.84375 L 11.757812 15.328125 L 12.832031 15.328125 Z M 12.296875 13.839844 L 12.652344 14.816406 L 11.941406 14.816406 Z M 12.296875 13.839844 "/>
<path style=" stroke:none;fill-rule:nonzero;fill:rgb(100%,87.843137%,45.490196%);fill-opacity:1;" d="M 15.132812 15.90625 C 15.800781 15.90625 16.324219 15.453125 16.449219 14.78125 L 15.859375 14.78125 C 15.761719 15.125 15.488281 15.339844 15.132812 15.339844 C 14.671875 15.339844 14.328125 14.976562 14.328125 14.484375 C 14.328125 13.996094 14.671875 13.625 15.132812 13.625 C 15.472656 13.625 15.742188 13.828125 15.855469 14.148438 L 16.4375 14.148438 C 16.3125 13.503906 15.789062 13.0625 15.132812 13.0625 C 14.335938 13.0625 13.730469 13.675781 13.730469 14.484375 C 13.730469 15.289062 14.335938 15.90625 15.132812 15.90625 Z M 15.132812 15.90625 "/>
<path style=" stroke:none;fill-rule:nonzero;fill:rgb(100%,87.843137%,45.490196%);fill-opacity:1;" d="M 18.691406 13.121094 L 16.597656 13.121094 L 16.597656 13.667969 L 17.351562 13.667969 L 17.351562 15.84375 L 17.9375 15.84375 L 17.9375 13.667969 L 18.691406 13.667969 Z M 18.691406 13.121094 "/>
<path style=" stroke:none;fill-rule:nonzero;fill:rgb(100%,87.843137%,45.490196%);fill-opacity:1;" d="M 21.132812 15.90625 C 21.804688 15.90625 22.328125 15.453125 22.453125 14.78125 L 21.859375 14.78125 C 21.765625 15.125 21.488281 15.339844 21.132812 15.339844 C 20.675781 15.339844 20.332031 14.976562 20.332031 14.484375 C 20.332031 13.996094 20.675781 13.625 21.132812 13.625 C 21.476562 13.625 21.746094 13.828125 21.859375 14.148438 L 22.441406 14.148438 C 22.316406 13.503906 21.792969 13.0625 21.132812 13.0625 C 20.339844 13.0625 19.734375 13.675781 19.734375 14.484375 C 19.734375 15.289062 20.339844 15.90625 21.132812 15.90625 Z M 21.132812 15.90625 "/>
<path style=" stroke:none;fill-rule:nonzero;fill:rgb(100%,87.843137%,45.490196%);fill-opacity:1;" d="M 23.460938 15.296875 L 23.460938 14.738281 L 24.398438 14.738281 L 24.398438 14.207031 L 23.460938 14.207031 L 23.460938 13.664062 L 24.5 13.664062 L 24.5 13.121094 L 22.875 13.121094 L 22.875 15.84375 L 24.542969 15.84375 L 24.542969 15.296875 Z M 23.460938 15.296875 "/>
<path style=" stroke:none;fill-rule:nonzero;fill:rgb(100%,87.843137%,45.490196%);fill-opacity:1;" d="M 26.75 13.121094 L 26.75 14.78125 L 25.5625 13.121094 L 25.035156 13.121094 L 25.035156 15.84375 L 25.609375 15.84375 L 25.609375 14.144531 L 26.832031 15.84375 L 27.324219 15.84375 L 27.324219 13.121094 Z M 26.75 13.121094 "/>
<path style=" stroke:none;fill-rule:nonzero;fill:rgb(100%,87.843137%,45.490196%);fill-opacity:1;" d="M 29.804688 13.121094 L 27.714844 13.121094 L 27.714844 13.667969 L 28.46875 13.667969 L 28.46875 15.84375 L 29.050781 15.84375 L 29.050781 13.667969 L 29.804688 13.667969 Z M 29.804688 13.121094 "/>
<path style=" stroke:none;fill-rule:nonzero;fill:rgb(100%,87.843137%,45.490196%);fill-opacity:1;" d="M 30.785156 15.296875 L 30.785156 14.738281 L 31.722656 14.738281 L 31.722656 14.207031 L 30.785156 14.207031 L 30.785156 13.664062 L 31.824219 13.664062 L 31.824219 13.121094 L 30.199219 13.121094 L 30.199219 15.84375 L 31.867188 15.84375 L 31.867188 15.296875 Z M 30.785156 15.296875 "/>
<path style=" stroke:none;fill-rule:nonzero;fill:rgb(100%,87.843137%,45.490196%);fill-opacity:1;" d="M 33.847656 15.84375 L 34.503906 15.84375 L 33.902344 14.816406 C 34.203125 14.667969 34.398438 14.382812 34.398438 14.023438 C 34.398438 13.5 33.992188 13.121094 33.449219 13.121094 L 32.359375 13.121094 L 32.359375 15.84375 L 32.945312 15.84375 L 32.945312 14.917969 L 33.320312 14.917969 Z M 32.945312 13.664062 L 33.410156 13.664062 C 33.660156 13.664062 33.800781 13.816406 33.800781 14.019531 C 33.800781 14.226562 33.660156 14.375 33.410156 14.375 L 32.945312 14.375 Z M 32.945312 13.664062 "/>
<path style=" stroke:none;fill-rule:nonzero;fill:rgb(100%,87.843137%,45.490196%);fill-opacity:1;" d="M 36.738281 15.898438 C 37.300781 15.898438 37.761719 15.613281 37.761719 15.027344 C 37.761719 14.417969 37.246094 14.289062 36.835938 14.183594 C 36.546875 14.113281 36.3125 14.054688 36.3125 13.863281 C 36.3125 13.683594 36.503906 13.601562 36.691406 13.601562 C 36.914062 13.601562 37.105469 13.710938 37.105469 13.949219 L 37.683594 13.949219 C 37.683594 13.40625 37.328125 13.070312 36.707031 13.070312 C 36.109375 13.070312 35.726562 13.367188 35.726562 13.886719 C 35.726562 14.472656 36.21875 14.59375 36.628906 14.695312 C 36.925781 14.761719 37.171875 14.820312 37.171875 15.035156 C 37.171875 15.238281 36.953125 15.351562 36.734375 15.351562 C 36.496094 15.351562 36.277344 15.226562 36.277344 14.964844 L 35.6875 14.964844 C 35.6875 15.546875 36.117188 15.898438 36.738281 15.898438 Z M 36.738281 15.898438 "/>
<path style=" stroke:none;fill-rule:nonzero;fill:rgb(100%,87.843137%,45.490196%);fill-opacity:1;" d="M 39.519531 15.90625 C 40.34375 15.90625 40.957031 15.292969 40.957031 14.480469 C 40.957031 13.671875 40.34375 13.0625 39.519531 13.0625 C 38.691406 13.0625 38.074219 13.675781 38.074219 14.480469 C 38.074219 15.289062 38.691406 15.90625 39.519531 15.90625 Z M 39.519531 15.347656 C 39.035156 15.347656 38.667969 14.972656 38.667969 14.480469 C 38.667969 13.992188 39.035156 13.617188 39.519531 13.617188 C 40.003906 13.617188 40.363281 13.988281 40.363281 14.480469 C 40.363281 14.976562 40.003906 15.347656 39.519531 15.347656 Z M 39.519531 15.347656 "/>
<path style=" stroke:none;fill-rule:nonzero;fill:rgb(100%,87.843137%,45.490196%);fill-opacity:1;" d="M 42 15.296875 L 42 13.121094 L 41.417969 13.121094 L 41.417969 15.84375 L 43.042969 15.84375 L 43.042969 15.296875 Z M 42 15.296875 "/>
<path style=" stroke:none;fill-rule:nonzero;fill:rgb(100%,87.843137%,45.490196%);fill-opacity:1;" d="M 44.457031 15.90625 C 45.09375 15.90625 45.574219 15.457031 45.574219 14.820312 L 45.574219 13.121094 L 44.984375 13.121094 L 44.984375 14.792969 C 44.984375 15.132812 44.765625 15.347656 44.457031 15.347656 C 44.144531 15.347656 43.921875 15.132812 43.921875 14.792969 L 43.921875 13.121094 L 43.335938 13.121094 L 43.335938 14.820312 C 43.335938 15.457031 43.816406 15.90625 44.457031 15.90625 Z M 44.457031 15.90625 "/>
<path style=" stroke:none;fill-rule:nonzero;fill:rgb(100%,87.843137%,45.490196%);fill-opacity:1;" d="M 48.027344 13.121094 L 45.9375 13.121094 L 45.9375 13.667969 L 46.691406 13.667969 L 46.691406 15.84375 L 47.273438 15.84375 L 47.273438 13.667969 L 48.027344 13.667969 Z M 48.027344 13.121094 "/>
<path style=" stroke:none;fill-rule:nonzero;fill:rgb(100%,87.843137%,45.490196%);fill-opacity:1;" d="M 48.421875 15.84375 L 49.003906 15.84375 L 49.003906 13.121094 L 48.421875 13.121094 Z M 48.421875 15.84375 "/>
<path style=" stroke:none;fill-rule:nonzero;fill:rgb(100%,87.843137%,45.490196%);fill-opacity:1;" d="M 50.910156 15.90625 C 51.734375 15.90625 52.347656 15.292969 52.347656 14.480469 C 52.347656 13.671875 51.734375 13.0625 50.910156 13.0625 C 50.082031 13.0625 49.464844 13.675781 49.464844 14.480469 C 49.464844 15.289062 50.082031 15.90625 50.910156 15.90625 Z M 50.910156 15.347656 C 50.425781 15.347656 50.058594 14.972656 50.058594 14.480469 C 50.058594 13.992188 50.425781 13.617188 50.910156 13.617188 C 51.394531 13.617188 51.753906 13.988281 51.753906 14.480469 C 51.753906 14.976562 51.394531 15.347656 50.910156 15.347656 Z M 50.910156 15.347656 "/>
<path style=" stroke:none;fill-rule:nonzero;fill:rgb(100%,87.843137%,45.490196%);fill-opacity:1;" d="M 54.523438 13.121094 L 54.523438 14.78125 L 53.335938 13.121094 L 52.808594 13.121094 L 52.808594 15.84375 L 53.382812 15.84375 L 53.382812 14.144531 L 54.605469 15.84375 L 55.097656 15.84375 L 55.097656 13.121094 Z M 54.523438 13.121094 "/>
<path style=" stroke:none;fill-rule:nonzero;fill:rgb(100%,87.843137%,45.490196%);fill-opacity:1;" d="M 56.613281 15.898438 C 57.171875 15.898438 57.636719 15.613281 57.636719 15.027344 C 57.636719 14.417969 57.121094 14.289062 56.710938 14.183594 C 56.417969 14.113281 56.1875 14.054688 56.1875 13.863281 C 56.1875 13.683594 56.378906 13.601562 56.566406 13.601562 C 56.789062 13.601562 56.980469 13.710938 56.980469 13.949219 L 57.554688 13.949219 C 57.554688 13.40625 57.203125 13.070312 56.582031 13.070312 C 55.984375 13.070312 55.601562 13.367188 55.601562 13.886719 C 55.601562 14.472656 56.09375 14.59375 56.503906 14.695312 C 56.796875 14.761719 57.046875 14.820312 57.046875 15.035156 C 57.046875 15.238281 56.828125 15.351562 56.609375 15.351562 C 56.371094 15.351562 56.152344 15.226562 56.152344 14.964844 L 55.5625 14.964844 C 55.5625 15.546875 55.992188 15.898438 56.613281 15.898438 Z M 56.613281 15.898438 "/>
<path style=" stroke:none;fill-rule:nonzero;fill:rgb(36.078431%,65.490196%,100%);fill-opacity:1;" d="M 0.28125 5.507812 L 5.234375 5.507812 L 5.234375 7.117188 L 0.28125 7.117188 Z M 0.28125 5.507812 "/>
<path style=" stroke:none;fill-rule:nonzero;fill:rgb(36.078431%,65.490196%,100%);fill-opacity:1;" d="M 8.957031 0.441406 L 8.957031 8.699219 L 13.796875 8.699219 L 13.796875 10.457031 L 7.195312 10.457031 L 7.195312 0.441406 Z M 8.957031 0.441406 "/>
<path style=" stroke:none;fill-rule:nonzero;fill:rgb(36.078431%,65.490196%,100%);fill-opacity:1;" d="M 24.070312 5.507812 C 24.039062 8.101562 22.558594 10.695312 19.253906 10.695312 C 15.953125 10.695312 14.414062 8.132812 14.414062 5.507812 C 14.414062 2.347656 16.570312 0.230469 19.28125 0.230469 C 22.5 0.261719 24.097656 2.882812 24.070312 5.507812 Z M 19.253906 8.9375 C 21.464844 8.9375 22.304688 7.148438 22.332031 5.507812 C 22.363281 3.839844 21.464844 1.960938 19.3125 1.929688 C 17.296875 1.929688 16.121094 3.539062 16.175781 5.507812 C 16.203125 7.179688 17.042969 8.9375 19.253906 8.9375 Z M 19.253906 8.9375 "/>
<path style=" stroke:none;fill-rule:nonzero;fill:rgb(36.078431%,65.490196%,100%);fill-opacity:1;" d="M 25.46875 5.507812 L 30.421875 5.507812 L 30.421875 7.117188 L 25.46875 7.117188 Z M 25.46875 5.507812 "/>
<path style=" stroke:none;fill-rule:nonzero;fill:rgb(36.078431%,65.490196%,100%);fill-opacity:1;" d="M 39.179688 2.882812 C 38.539062 2.230469 37.613281 1.871094 36.800781 1.871094 C 34.785156 1.871094 33.554688 3.511719 33.554688 5.566406 C 33.554688 7.207031 34.453125 8.90625 36.800781 8.90625 C 37.53125 8.90625 38.171875 8.726562 38.929688 8.101562 L 38.929688 6.3125 L 36.523438 6.3125 L 36.523438 4.613281 L 40.550781 4.613281 L 40.550781 8.847656 C 39.628906 9.980469 38.453125 10.636719 36.800781 10.636719 C 33.277344 10.636719 31.820312 8.160156 31.820312 5.539062 C 31.820312 2.707031 33.472656 0.113281 36.800781 0.113281 C 38.0625 0.113281 39.320312 0.617188 40.300781 1.632812 Z M 39.179688 2.882812 "/>
<path style=" stroke:none;fill-rule:nonzero;fill:rgb(36.078431%,65.490196%,100%);fill-opacity:1;" d="M 51.4375 5.507812 C 51.410156 8.101562 49.925781 10.695312 46.625 10.695312 C 43.324219 10.695312 41.785156 8.160156 41.785156 5.539062 C 41.785156 2.378906 43.9375 0.261719 46.652344 0.261719 C 49.871094 0.261719 51.464844 2.882812 51.4375 5.507812 Z M 46.625 8.9375 C 48.835938 8.9375 49.675781 7.148438 49.703125 5.507812 C 49.730469 3.839844 48.835938 1.960938 46.679688 1.929688 C 44.664062 1.929688 43.492188 3.539062 43.546875 5.507812 C 43.574219 7.179688 44.414062 8.9375 46.625 8.9375 Z M 46.625 8.9375 "/>
<path style=" stroke:none;fill-rule:nonzero;fill:rgb(36.078431%,65.490196%,100%);fill-opacity:1;" d="M 52.835938 5.507812 L 57.792969 5.507812 L 57.792969 7.117188 L 52.835938 7.117188 Z M 52.835938 5.507812 "/>
</g>
</svg>
